<svg xmlns="http://www.w3.org/2000/svg" viewBox="0 0 726.36 149.77" width="242" height="50"><path fill="#3a8bbb" d="M279.41 84.22v42h-14.64V85.3c0-10.16-6.1-17.61-16.4-17.61a18.65 18.65 0 00-18.83 19v39.57h-14.77V57.39h14.5v8.81a27.12 27.12 0 0122.36-11.52c16.8 0 27.78 12.47 27.78 29.54zm13.91 18.66h13.5c0 8.23 7.43 14.17 17.69 14.17 9.18 0 15.79-4.32 15.79-10.12-.13-15.39-45.9-2.3-45.9-30.51 0-12.56 12-21.74 27.54-21.74 17.69 0 30.65 9.86 30.65 23.49H339c-.13-6.75-7.29-11.47-17.14-11.47-7.43 0-13.64 4-13.64 9.58-.13 15 46 4 46.17 29.43 0 13.37-12.42 23.23-29.83 23.23-18.14 0-31.24-10.94-31.24-26.06zm76.02-3.48v-42h14.77v40.91c0 10.16 6 17.62 16.4 17.62a18.74 18.74 0 0018.83-19V57.39H434v68.84h-14.5v-8.81c-4.74 7.18-13.41 11.51-22.22 11.51-16.96 0-27.94-12.46-27.94-29.53zm126.24-42.96v13.15A28.13 28.13 0 00485 67.28c-9.89 0-16.26 8.81-16.26 21v37.93H454V57.39h14.23v8.54c4.2-7.05 10.84-11.25 18.7-11.25a25.49 25.49 0 018.65 1.76zm60.18 48.92l12.74 4.2c-4.07 11.24-17.75 19.37-32.66 19.37-21.68 0-37.26-15.85-37.26-37.94 0-21.13 15.45-36.31 36.85-36.31S572 69.86 572 91.13c0 1.63-.14 3.66-.27 5.15h-58c1.77 12.19 10.44 20.32 21.82 20.32 8.83 0 17.09-4.87 20.21-11.24zm1-19.92C555.08 74.6 546.41 67 535 67c-11.11 0-19.24 7.45-21.28 18.43zm45.03 40.79H587v-100h14.77zm34.77 0h-14.77v-100h14.77zm52.44 2.7c-22.09 0-37.4-15.31-37.4-37.12s15.27-37.13 37.4-37.13 37.4 15.31 37.4 37.13-15.49 37.12-37.4 37.12zm0-61.24c-13.28 0-22.77 10.16-22.77 24.12s9.49 24.12 22.77 24.12 22.76-10.17 22.76-24.12S702.1 67.69 689 67.69zm-494.23 58.54H180V57.39h14.77z"/><circle fill="#3a8bbb" cx="187.38" cy="34.65" r="8.42"/><path fill="#3a8bbb" d="M150 75a75 75 0 10-80.54 74.77V97.05A22.75 22.75 0 0152.27 75H37.5a37.46 37.46 0 0017.73 31.86v25a60.23 60.23 0 1139.54 0v-25A37.46 37.46 0 00112.5 75H97.73a22.75 22.75 0 01-17.19 22v52.72A75 75 0 00150 75z"/><path d="M93.61 59.72c4.2-4 6.39-9.06 6.39-12.68a13.24 13.24 0 00-13.19-13.28c-6 0-8.58 2.62-11.81 5.9-3.23-3.28-5.8-5.9-11.81-5.9A13.24 13.24 0 0050 47c0 3.62 2.19 8.66 6.39 12.68L75 77.51z" fill-rule="evenodd" fill="#3a8bbb"/></svg>